HIERARCHY
ROOT Hips
{
	OFFSET 0.00000 0.00000 0.00000
	CHANNELS 6 Xposition Yposition Zposition Zrotation Yrotation Xrotation 
	JOINT RightUpLegDummy
	{
		OFFSET 0 0 0
		CHANNELS 3 Zrotation Yrotation Xrotation
		JOINT RightUpLeg
		{
			OFFSET -3.52197 -3.41223 0.04002
			CHANNELS 3 Zrotation Yrotation Xrotation
			JOINT RightLeg
			{
				OFFSET 0.00006 -17.42390 1.60435
				CHANNELS 3 Zrotation Yrotation Xrotation
				JOINT RightFoot
				{
					OFFSET 0.06154 -16.50078 -1.63900
					CHANNELS 3 Zrotation Yrotation Xrotation
					JOINT RightToes
					{
						OFFSET 0.00298 -1.73825 3.34613
						CHANNELS 3 Zrotation Yrotation Xrotation
						End Site
						{
							OFFSET 0.00480 -0.05416 3.85043
						}
					}
				}
			}
		}
	}
	JOINT SpineDummy
	{
		OFFSET 0 0 0
		CHANNELS 3 Zrotation Yrotation Xrotation
		JOINT Spine
		{
			OFFSET 0.00000 4.68130 0.00000
			CHANNELS 3 Zrotation Yrotation Xrotation
			JOINT Spine1
			{
				OFFSET -0.00000 10.10138 0.05002
				CHANNELS 3 Zrotation Yrotation Xrotation
				JOINT HEadDummy
				{
					OFFSET 0 0 0
					CHANNELS 3 Zrotation Yrotation Xrotation
					JOINT Head
					{
						OFFSET -0.00000 3.43865 0.00438
						CHANNELS 3 Zrotation Yrotation Xrotation
						End Site
						{
							OFFSET -0.11417 5.02924 0.98962
						}
					}
				}
				JOINT LeftShoulder1Dummy
				{
					OFFSET 0 0 0
					CHANNELS 3 Zrotation Yrotation Xrotation
					JOINT LeftShoulder1
					{
						OFFSET 3.53937 -0.14262 -0.08662
						CHANNELS 3 Zrotation Yrotation Xrotation
						JOINT LeftArm
						{
							OFFSET 4.04833 -0.00133 0.12681
							CHANNELS 3 Zrotation Yrotation Xrotation
							JOINT LeftForeArm
							{
								OFFSET 10.33880 -0.01036 -0.55515
								CHANNELS 3 Zrotation Yrotation Xrotation
								JOINT LeftHand
								{
									OFFSET 8.69677 0.07543 0.40060
									CHANNELS 3 Zrotation Yrotation Xrotation
									End Site
									{
										OFFSET 5.28377 -0.21905 0.59205
									}
								}
							}
						}
					}
				}
				JOINT RightShoulderDummy
				{
					OFFSET 0 0 0
					CHANNELS 3 Zrotation Yrotation Xrotation
					JOINT RightShoulder
					{
						OFFSET -3.53937 -0.14262 -0.08660
						CHANNELS 3 Zrotation Yrotation Xrotation
						JOINT RightArm
						{
							OFFSET -4.04833 -0.00133 0.12683
							CHANNELS 3 Zrotation Yrotation Xrotation
							JOINT RightForeArm
							{
								OFFSET -10.37987 -0.01039 -0.55511
								CHANNELS 3 Zrotation Yrotation Xrotation
								JOINT RightHand
								{
									OFFSET -8.67398 0.07538 0.40058
									CHANNELS 3 Zrotation Yrotation Xrotation
									End Site
									{
										OFFSET -5.24810 -0.21916 0.59204
									}
								}
							}
						}
					}
				}
			}
		}
	}
	JOINT LeftUpLegDummy
	{
		OFFSET 0 0 0
		CHANNELS 3 Zrotation Yrotation Xrotation
		JOINT LeftUpLeg
		{
			OFFSET 3.52197 -3.41223 0.04002
			CHANNELS 3 Zrotation Yrotation Xrotation
			JOINT LeftLeg
			{
				OFFSET -0.00012 -17.42399 1.60337
				CHANNELS 3 Zrotation Yrotation Xrotation
				JOINT LeftFoot
				{
					OFFSET -0.09972 -16.50070 -1.63802
					CHANNELS 3 Zrotation Yrotation Xrotation
					JOINT LeftToes
					{
						OFFSET -0.01575 -1.73823 3.34611
						CHANNELS 3 Zrotation Yrotation Xrotation
						End Site
						{
							OFFSET 0.03150 -0.01868 3.85031
						}
					}
				}
			}
		}
	}
}
MOTION
Frames: 14
Frame Time: 0.033333
55.9798 38.7801 -0.0054 -4.5502 66.1732 -8.3256 0.0000 0.0000 0.0000 3.3671 -4.9593 0.5407 -2.8749 -14.7761 12.3648 2.8822 -0.0980 -8.7329 -0.0000 -0.0000 0.0000 0.0000 0.0000 0.0000 -6.9118 1.2906 -8.8633 10.9369 -1.8338 22.0389 0.0000 0.0000 0.0000 1.7562 19.7606 -5.7495 0.0000 0.0000 0.0000 -17.7467 -4.3955 1.9243 -54.3396 -10.8130 13.8814 -11.2977 -14.4429 3.4887 14.9818 -1.4785 -0.8749 0.0000 0.0000 0.0000 20.1928 2.1929 1.5178 52.0420 9.0742 21.6862 3.9546 20.4345 1.1168 -1.1463 -0.0552 -0.0549 0.0000 0.0000 0.0000 1.9432 12.2781 -11.0549 8.3129 22.7285 15.4992 1.2540 -0.1465 1.2858 -0.0000 -0.0000 -0.0000
55.9557 38.7666 -0.0561 -4.9244 66.4279 -8.7490 0.0000 0.0000 0.0000 3.4830 -4.8738 0.4814 -3.0511 -15.0977 12.5521 2.7932 -0.0928 -8.7242 -0.0000 -0.0000 0.0000 0.0000 0.0000 0.0000 -6.4453 1.3860 -9.2260 11.1840 -1.8760 22.4164 0.0000 0.0000 0.0000 1.6131 19.4080 -5.1636 0.0000 0.0000 0.0000 -17.9131 -4.3277 1.9198 -53.1547 -10.2565 31.1627 -6.1268 -20.4173 -14.0402 13.5713 -0.4523 -0.6773 0.0000 0.0000 0.0000 19.8104 2.2210 1.5049 50.1520 9.3266 27.4370 1.1037 23.7143 -3.6394 3.2971 -1.5108 0.0912 0.0000 0.0000 0.0000 1.9356 12.2744 -11.2231 8.3698 22.4302 15.7035 1.5252 -0.1778 1.3501 -0.0000 -0.0000 -0.0000
55.9269 38.7510 -0.0971 -5.3540 66.6943 -9.2362 0.0000 0.0000 0.0000 3.6280 -4.7931 0.4370 -3.2205 -15.4358 12.7381 2.7605 -0.0911 -8.7317 -0.0000 -0.0000 0.0000 0.0000 0.0000 0.0000 -6.0606 1.4858 -9.4908 11.4905 -1.9199 22.6121 0.0000 0.0000 0.0000 1.7122 19.1604 -4.4095 0.0000 0.0000 0.0000 -17.7484 -4.1010 1.8529 -51.0023 -9.0357 39.7572 -1.4057 -26.7553 -26.3798 12.4916 0.8301 -0.4935 0.0000 0.0000 0.0000 19.2434 2.2279 1.4764 47.8601 9.5801 24.6615 0.6364 27.7631 -1.6266 8.3051 -3.3910 0.1077 0.0000 0.0000 0.0000 1.9639 12.1832 -11.3957 8.4722 22.1840 15.9473 1.7489 -0.2039 1.4149 -0.0000 -0.0000 -0.0000
55.8974 38.7347 -0.1253 -5.6238 66.8983 -9.6199 0.0000 0.0000 0.0000 3.7052 -4.7812 0.4380 -3.3437 -15.6360 12.9416 2.7996 -0.0940 -8.7814 -0.0000 -0.0000 0.0000 0.0000 0.0000 0.0000 -5.5888 1.6464 -9.6813 11.5360 -1.7866 22.6783 0.0000 0.0000 0.0000 2.1371 18.8857 -3.5566 0.0000 0.0000 0.0000 -17.0650 -3.8814 1.7528 -47.9559 -7.6310 34.4418 -2.0587 -33.6889 -27.2558 11.9716 2.5436 -0.3083 0.0000 0.0000 0.0000 18.6653 2.1738 1.4320 45.6074 9.7327 19.0769 0.6416 32.5457 -0.2413 11.9814 -5.2947 -0.0430 0.0000 0.0000 0.0000 1.9831 12.0593 -11.4796 8.6025 22.0519 16.1786 1.7500 -0.2061 1.4628 -0.0000 -0.0000 -0.0000
55.8644 38.7226 -0.1464 -5.7286 66.9801 -9.8464 0.0000 0.0000 0.0000 3.7342 -4.7856 0.4369 -3.4286 -15.6959 13.1223 2.8264 -0.0960 -8.8198 -0.0000 -0.0000 0.0000 0.0000 0.0000 0.0000 -5.1821 1.9291 -9.9236 11.6644 -1.5467 22.7454 0.0000 0.0000 0.0000 2.3830 18.4162 -2.7009 0.0000 0.0000 0.0000 -16.4140 -3.6637 1.6582 -44.5466 -6.2415 29.6363 -2.4318 -40.9133 -30.7341 12.0287 4.4217 -0.1277 0.0000 0.0000 0.0000 17.9166 2.0180 1.3546 43.5652 9.9391 12.1807 0.7213 37.6262 -0.9701 13.3903 -6.6324 -0.2149 0.0000 0.0000 0.0000 1.9889 12.0484 -11.5035 8.6845 21.9635 16.3325 1.6731 -0.2028 1.5184 -0.0000 -0.0000 -0.0000
55.8185 38.7152 -0.1668 -5.8970 66.9956 -10.0679 0.0000 0.0000 0.0000 3.8364 -4.6952 0.3661 -3.5393 -15.8001 13.2491 2.7904 -0.0943 -8.7973 -0.0000 -0.0000 0.0000 0.0000 0.0000 0.0000 -4.9065 2.2872 -10.0815 12.0683 -1.3204 22.6099 0.0000 0.0000 0.0000 2.2568 17.8175 -1.8071 0.0000 0.0000 0.0000 -16.0188 -3.3700 1.5654 -41.0195 -5.3415 24.4217 -2.9012 -47.1841 -34.6842 12.8534 5.5456 -0.0183 0.0000 0.0000 0.0000 17.0779 1.7861 1.2567 41.7266 10.2117 4.3423 0.9797 42.9427 -4.0467 12.8593 -7.5331 -0.3191 0.0000 0.0000 0.0000 2.0370 12.1408 -11.5705 8.6844 21.8212 16.4065 1.7023 -0.2058 1.5904 -0.0000 -0.0000 -0.0000
55.7587 38.7064 -0.1879 -6.2710 67.0536 -10.4429 0.0000 0.0000 0.0000 4.0588 -4.4950 0.2384 -3.7223 -16.0690 13.3689 2.7480 -0.0924 -8.7462 -0.0000 -0.0000 0.0000 0.0000 0.0000 0.0000 -4.5261 2.6089 -9.9087 12.3411 -1.0688 22.0128 0.0000 0.0000 0.0000 2.2227 17.2362 -0.8173 0.0000 0.0000 0.0000 -15.4210 -3.0489 1.4566 -38.0994 -4.8320 18.4311 -3.4291 -52.1939 -38.6294 14.2622 5.6926 0.0024 0.0000 0.0000 0.0000 16.5671 1.5696 1.1814 40.0109 10.4412 -3.7562 1.5515 48.6733 -10.5734 10.1829 -8.4496 -0.3563 0.0000 0.0000 0.0000 2.1512 12.2911 -11.7073 8.6234 21.5472 16.4640 1.7785 -0.2116 1.6263 -0.0000 -0.0000 -0.0000
55.6977 38.6927 -0.2073 -6.7129 67.2126 -10.9110 0.0000 0.0000 0.0000 4.2929 -4.3035 0.1249 -3.9395 -16.4242 13.5432 2.7482 -0.0933 -8.7288 -0.0000 -0.0000 0.0000 0.0000 0.0000 0.0000 -4.0493 2.8089 -9.4014 12.3202 -0.8113 21.0100 0.0000 0.0000 0.0000 2.5309 16.7962 0.1688 0.0000 0.0000 0.0000 -14.4659 -2.7243 1.3302 -36.1074 -4.3991 11.5031 -4.0353 -56.3831 -42.9256 15.9807 5.9142 0.0397 0.0000 0.0000 0.0000 16.4754 1.4371 1.1465 38.4622 10.8069 -11.4211 2.4899 54.5908 -20.0300 4.8752 -8.6171 -0.2266 0.0000 0.0000 0.0000 2.2592 12.5521 -11.8470 8.5033 21.0802 16.5323 1.8018 -0.2148 1.5961 -0.0000 -0.0000 -0.0000
55.6463 38.6772 -0.2216 -7.0356 67.4360 -11.3041 0.0000 0.0000 0.0000 4.4268 -4.2298 0.0562 -4.0993 -16.7161 13.7510 2.7492 -0.0944 -8.7539 -0.0000 -0.0000 0.0000 0.0000 0.0000 0.0000 -3.9153 2.8798 -8.6970 12.5529 -0.7334 19.7506 0.0000 0.0000 0.0000 2.7075 16.6229 1.0205 0.0000 0.0000 0.0000 -13.7558 -2.2598 1.1937 -34.6339 -3.9092 3.9055 -4.7467 -60.3062 -47.1459 18.0482 6.6413 0.1603 0.0000 0.0000 0.0000 16.3878 1.3832 1.1301 37.2983 11.6772 -18.4620 3.6786 60.2019 -29.5692 -1.6980 -7.2755 -0.0382 0.0000 0.0000 0.0000 2.2952 12.9343 -11.9497 8.3269 20.4640 16.5911 1.8195 -0.2175 1.5477 -0.0000 -0.0000 -0.0000
55.6002 38.6627 -0.2313 -7.2568 67.6007 -11.5919 0.0000 0.0000 0.0000 4.4872 -4.2506 0.0067 -4.1414 -16.8547 13.9111 2.7065 -0.0930 -8.7880 -0.0000 -0.0000 0.0000 0.0000 0.0000 0.0000 -4.2420 2.9269 -7.8530 13.3648 -0.8323 18.2954 0.0000 0.0000 0.0000 2.3353 16.6305 1.7006 0.0000 0.0000 0.0000 -13.7429 -1.6530 1.0674 -33.2284 -3.4620 -3.9088 -5.5752 -64.2087 -49.9539 19.9496 6.9719 0.2386 0.0000 0.0000 0.0000 16.0278 1.3760 1.1123 36.7045 13.0196 -25.0254 5.0860 65.5434 -36.9075 -7.6220 -5.4638 -0.0334 0.0000 0.0000 0.0000 2.3079 13.3347 -12.0398 8.1590 19.8809 16.6466 1.8689 -0.2210 1.5188 -0.0000 -0.0000 -0.0000
55.5504 38.6494 -0.2396 -7.4961 67.5854 -11.8654 0.0000 0.0000 0.0000 4.5697 -4.2658 -0.0435 -4.0774 -16.8277 13.9719 2.6468 -0.0913 -8.8052 -0.0000 -0.0000 0.0000 0.0000 0.0000 0.0000 -4.4558 3.1064 -7.0311 14.1783 -0.7916 16.9263 0.0000 0.0000 0.0000 1.7383 16.4118 2.1876 0.0000 0.0000 0.0000 -14.0542 -1.2146 0.9905 -31.9042 -3.3044 -11.4885 -6.5651 -67.9639 -51.1971 21.2830 6.5061 0.1758 0.0000 0.0000 0.0000 15.6052 1.3762 1.0934 36.5850 14.3690 -31.1210 6.9600 70.9646 -41.0406 -12.3517 -4.1551 -0.1566 0.0000 0.0000 0.0000 2.3935 13.6330 -12.1309 8.0900 19.5456 16.7303 1.8581 -0.2178 1.4812 -0.0000 -0.0000 -0.0000
55.4963 38.6392 -0.2463 -7.7633 67.4045 -12.1467 0.0000 0.0000 0.0000 4.7003 -4.2299 -0.0825 -3.9624 -16.7030 13.9424 2.6044 -0.0902 -8.7962 -0.0000 -0.0000 0.0000 0.0000 0.0000 0.0000 -4.1496 3.4624 -6.5625 14.4165 -0.4361 16.1155 0.0000 0.0000 0.0000 1.4379 15.7127 2.4834 0.0000 0.0000 0.0000 -14.0734 -1.1668 0.9811 -30.8934 -3.6402 -18.3639 -7.7233 -71.1921 -51.8797 23.4205 5.9080 0.0785 0.0000 0.0000 0.0000 15.3803 1.3109 1.0689 36.5677 15.4519 -36.4977 9.7236 76.1421 -41.1631 -15.6584 -3.1883 -0.3150 0.0000 0.0000 0.0000 2.5685 13.7085 -12.1996 8.1634 19.5834 16.8424 1.7181 -0.2008 1.4263 -0.0000 -0.0000 -0.0000
55.4425 38.6337 -0.2463 -8.0044 67.1956 -12.4016 0.0000 0.0000 0.0000 4.8461 -4.1687 -0.0988 -3.8539 -16.6004 13.8684 2.5724 -0.0898 -8.7607 -0.0000 -0.0000 0.0000 0.0000 0.0000 0.0000 -3.7331 3.8729 -6.5134 14.4335 -0.0050 15.8918 0.0000 0.0000 0.0000 1.4116 14.8588 2.7008 0.0000 0.0000 0.0000 -13.7076 -1.3076 0.9947 -30.2968 -4.3006 -24.1396 -8.9062 -73.6421 -51.8196 27.0706 5.5178 0.0101 0.0000 0.0000 0.0000 15.2999 1.1384 1.0272 36.3271 16.4145 -40.7571 13.7995 80.2707 -37.2160 -17.4439 -2.3519 -0.4702 0.0000 0.0000 0.0000 2.7810 13.4629 -12.2403 8.3666 19.9675 16.9703 1.5192 -0.1782 1.4080 -0.0000 -0.0000 -0.0000
55.3921 38.6288 -0.2384 -8.2385 67.0498 -12.6543 0.0000 0.0000 0.0000 4.9996 -4.1052 -0.1034 -3.7892 -16.5769 13.8093 2.5520 -0.0900 -8.7174 -0.0000 -0.0000 0.0000 0.0000 0.0000 0.0000 -3.7177 4.1933 -6.5790 14.8244 0.2170 15.8026 0.0000 0.0000 0.0000 1.2904 14.2980 2.9269 0.0000 0.0000 0.0000 -13.2798 -1.3651 0.9876 -29.9939 -4.7941 -28.6228 -9.9568 -75.4640 -50.0059 29.5950 5.1731 -0.0699 0.0000 0.0000 0.0000 15.2431 0.9249 0.9777 35.8454 17.3653 -43.5726 19.3920 83.0969 -30.5134 -18.3972 -1.7298 -0.5913 0.0000 0.0000 0.0000 2.9993 12.9717 -12.2834 8.6517 20.5167 17.1382 1.3614 -0.1612 1.4432 -0.0000 -0.0000 -0.0000
